<svg id="Layer_1" data-name="Layer 1" xmlns="http://www.w3.org/2000/svg" viewBox="0 0 48 48"><defs><style>.cls-1{fill:none;stroke:#000;stroke-linecap:round;stroke-linejoin:round;stroke-width:2px;}</style></defs><title>drug_3</title><path class="cls-1" d="M34.56,42.46h0c-2.81,2.81-8.2,2-12-1.86l-7.15-7.15L7.92,26c-3.84-3.84-4.67-9.23-1.86-12h0c2.81-2.81,8.2-2,12,1.86l14.6,14.6C36.54,34.25,37.37,39.65,34.56,42.46Z"/><line class="cls-1" x1="15.36" y1="33.36" x2="25.46" y2="23.25"/><circle class="cls-1" cx="24" cy="10" r="6"/><line class="cls-1" x1="20" y1="10" x2="27" y2="10"/><circle class="cls-1" cx="24" cy="10" r="6"/><line class="cls-1" x1="20" y1="10" x2="27" y2="10"/><circle class="cls-1" cx="37" cy="17" r="6" transform="translate(-1.18 31.14) rotate(-45)"/><line class="cls-1" x1="34.68" y1="19.25" x2="39.23" y2="14.7"/><circle class="cls-1" cx="37" cy="17" r="6" transform="translate(-1.18 31.14) rotate(-45)"/><line class="cls-1" x1="34.68" y1="19.25" x2="39.23" y2="14.7"/><rect class="cls-1" x="-632" y="-292" width="700" height="700"/></svg>