<svg id="Layer_1" data-name="Layer 1" xmlns="http://www.w3.org/2000/svg" viewBox="0 0 48 48"><defs><style>.cls-1{fill:none;stroke:#000;stroke-linecap:round;stroke-linejoin:round;stroke-width:2px;}</style></defs><title>tube_2</title><rect class="cls-1" x="18" y="9" width="12" height="5"/><path class="cls-1" d="M28.54,18.31V14H19.46v4.31a13.22,13.22,0,0,0-9.33,14.32A13.59,13.59,0,0,0,21.91,43.94C30.57,45.12,38,38.8,38,30.83A13.33,13.33,0,0,0,28.54,18.31Z"/><polygon class="cls-1" points="27.57 9 20.43 9 19 4 29 4 27.57 9"/><path class="cls-1" d="M11.54,27.58A47.11,47.11,0,0,0,25.61,30c7.32,0,13.3-.82,10.83-3.91S18.29,27,17.25,29"/><rect class="cls-1" x="-564" y="-428" width="700" height="700"/></svg>